<svg id="Layer_1" enable-background="new 0 0 256 256" height="512" viewBox="0 0 256 256" width="512" xmlns="http://www.w3.org/2000/svg"><g><g><path d="m33.134 130h-21.289c-1.104 0-2-.896-2-2s.896-2 2-2h21.289c1.104 0 2 .896 2 2s-.895 2-2 2z" fill="#690589"/></g><g><path d="m244.155 130h-21.289c-1.104 0-2-.896-2-2s.896-2 2-2h21.289c1.104 0 2 .896 2 2s-.896 2-2 2z" fill="#690589"/></g><g><path d="m128 35.134c-1.104 0-2-.896-2-2v-21.289c0-1.104.896-2 2-2s2 .896 2 2v21.289c0 1.105-.896 2-2 2z" fill="#690589"/></g><g><path d="m128 246.155c-1.104 0-2-.896-2-2v-21.289c0-1.104.896-2 2-2s2 .896 2 2v21.289c0 1.104-.896 2-2 2z" fill="#690589"/></g><g><path d="m45.866 212.134c-.512 0-1.024-.195-1.414-.586-.781-.781-.781-2.047 0-2.828l15.054-15.054c.78-.781 2.048-.781 2.828 0 .781.781.781 2.047 0 2.828l-15.054 15.054c-.39.39-.902.586-1.414.586z" fill="#690589"/></g><g><path d="m195.08 62.92c-.512 0-1.024-.195-1.414-.586-.781-.781-.781-2.047 0-2.828l15.054-15.054c.78-.781 2.048-.781 2.828 0 .781.781.781 2.047 0 2.828l-15.054 15.054c-.39.391-.902.586-1.414.586z" fill="#690589"/></g><g><path d="m60.92 62.92c-.512 0-1.024-.195-1.414-.586l-15.054-15.054c-.781-.781-.781-2.047 0-2.828.78-.781 2.048-.781 2.828 0l15.054 15.054c.781.781.781 2.047 0 2.828-.39.391-.902.586-1.414.586z" fill="#690589"/></g><g><path d="m210.134 212.134c-.512 0-1.024-.195-1.414-.586l-15.054-15.054c-.781-.781-.781-2.047 0-2.828.78-.781 2.048-.781 2.828 0l15.054 15.054c.781.781.781 2.047 0 2.828-.39.39-.902.586-1.414.586z" fill="#690589"/></g><g><circle cx="128" cy="11.845" fill="#526faa" r="7.845"/></g><g><circle cx="128" cy="244.155" fill="#526faa" r="7.845"/></g><g><circle cx="11.845" cy="128" fill="#526faa" r="7.845"/></g><g><circle cx="244.155" cy="128" fill="#526faa" r="7.845"/></g><g><circle cx="45.866" cy="45.866" fill="#526faa" r="7.845"/></g><g><circle cx="210.134" cy="210.134" fill="#526faa" r="7.845"/></g><g><circle cx="45.866" cy="210.134" fill="#526faa" r="7.845"/></g><g><circle cx="210.134" cy="45.866" fill="#526faa" r="7.845"/></g><g><path d="m221.827 143.715v-31.43h-17.393c-2.021-9.879-5.92-19.069-11.29-27.203l12.315-12.315-22.225-22.225-12.315 12.315c-8.134-5.37-17.324-9.27-27.203-11.291v-17.393h-31.43v17.393c-9.879 2.021-19.069 5.921-27.203 11.291l-12.316-12.315-22.225 22.225 12.315 12.315c-5.37 8.134-9.27 17.324-11.291 27.203h-17.393v31.43h17.393c2.021 9.879 5.921 19.069 11.291 27.203l-12.315 12.315 22.225 22.225 12.315-12.315c8.134 5.37 17.324 9.27 27.203 11.291v17.393h31.43v-17.393c9.879-2.021 19.069-5.921 27.203-11.291l12.314 12.315 22.225-22.225-12.315-12.315c5.37-8.134 9.27-17.324 11.29-27.203zm-93.827 37.592c-29.44 0-53.306-23.866-53.306-53.307 0-29.44 23.867-53.306 53.306-53.306 29.441 0 53.307 23.866 53.307 53.306 0 29.441-23.867 53.307-53.307 53.307z" fill="#fcc24c"/></g><g><path d="m191.505 75.429-7.486 7.485c-1.231 1.23-1.505 3.152-.601 4.639 4.059 6.675 7.149 14.002 9.063 21.794.42 1.71 1.912 2.938 3.672 2.938h8.28c-2.021-9.879-5.92-19.068-11.29-27.203l12.315-12.315-22.225-22.225-5.646 5.646 13.918 13.918c1.47 1.47 1.47 3.853 0 5.323z" fill="#dea42e"/></g><g><path d="m210.535 112.285h11.291v31.431h-11.291z" fill="#dea42e"/></g><g><path d="m204.433 143.715h-8.28c-1.76 0-3.252 1.228-3.672 2.938-1.914 7.792-5.005 15.119-9.063 21.794-.904 1.487-.629 3.409.601 4.639l7.486 7.486c1.47 1.47 1.47 3.853 0 5.323l-13.918 13.918 5.646 5.646 22.225-22.225-12.315-12.315c5.37-8.135 9.27-17.325 11.29-27.204z" fill="#dea42e"/></g><g><path d="m64.495 75.429 7.486 7.485c1.231 1.23 1.506 3.152.601 4.639-4.059 6.675-7.149 14.002-9.063 21.794-.42 1.71-1.912 2.938-3.672 2.938h-8.28c2.021-9.879 5.92-19.068 11.291-27.203l-12.316-12.315 22.225-22.225 5.646 5.646-13.918 13.918c-1.47 1.47-1.47 3.853 0 5.323z" fill="#fce06a"/></g><g><path d="m34.173 112.285h11.292v31.431h-11.292z" fill="#fce06a"/></g><g><path d="m51.567 143.715h8.28c1.76 0 3.252 1.228 3.672 2.938 1.914 7.792 5.005 15.119 9.063 21.794.904 1.487.629 3.409-.601 4.639l-7.486 7.486c-1.47 1.47-1.47 3.853 0 5.323l13.918 13.918-5.646 5.646-22.225-22.225 12.315-12.315c-5.37-8.135-9.27-17.325-11.29-27.204z" fill="#fce06a"/></g><g><path d="m45.465 136c-1.104 0-2-.896-2-2v-12c0-1.104.896-2 2-2s2 .896 2 2v12c0 1.104-.896 2-2 2z" fill="#690589"/></g><g><path d="m143.715 223.827h-31.431c-1.104 0-2-.896-2-2v-15.778c-8.84-1.998-17.213-5.473-24.931-10.349l-11.172 11.172c-.75.75-2.078.75-2.828 0l-22.225-22.225c-.781-.781-.781-2.047 0-2.828l11.172-11.173c-4.876-7.717-8.352-16.089-10.349-24.931h-15.778c-1.104 0-2-.896-2-2v-31.431c0-1.104.896-2 2-2h15.778c1.998-8.842 5.473-17.213 10.349-24.931l-11.172-11.172c-.781-.781-.781-2.047 0-2.828l22.225-22.225c.75-.75 2.078-.75 2.828 0l11.173 11.172c7.718-4.876 16.091-8.352 24.931-10.349v-15.778c0-1.104.896-2 2-2h31.431c1.104 0 2 .896 2 2v15.778c8.84 1.998 17.213 5.473 24.931 10.349l11.173-11.172c.78-.781 2.048-.781 2.828 0l22.225 22.225c.375.375.586.884.586 1.414s-.211 1.039-.586 1.414l-11.173 11.173c4.876 7.716 8.352 16.088 10.349 24.931h15.778c1.104 0 2 .896 2 2v31.431c0 1.104-.896 2-2 2h-15.778c-1.998 8.842-5.473 17.214-10.349 24.931l11.173 11.173c.375.375.586.884.586 1.414s-.211 1.039-.586 1.414l-22.225 22.225c-.375.375-.884.586-1.414.586-.53 0-1.039-.211-1.414-.586l-11.174-11.173c-7.718 4.876-16.091 8.352-24.931 10.349v15.778c0 1.104-.895 2-2 2zm-29.43-4h27.431v-15.393c0-.95.668-1.769 1.599-1.959 9.459-1.935 18.375-5.636 26.502-11 .793-.523 1.845-.417 2.516.255l10.9 10.9 19.396-19.396-10.901-10.901c-.672-.671-.778-1.723-.255-2.516 5.364-8.124 9.065-17.04 11-26.501.19-.931 1.009-1.599 1.959-1.599h15.394v-27.431h-15.394c-.95 0-1.769-.668-1.959-1.599-1.935-9.461-5.636-18.377-11-26.501-.523-.793-.417-1.845.255-2.516l10.901-10.901-19.396-19.396-10.901 10.9c-.672.673-1.723.779-2.516.255-8.126-5.364-17.042-9.065-26.501-11-.931-.19-1.599-1.009-1.599-1.959v-15.396h-27.431v15.393c0 .95-.668 1.769-1.599 1.959-9.459 1.935-18.375 5.636-26.502 11-.792.524-1.844.418-2.516-.255l-10.9-10.9-19.397 19.397 10.9 10.901c.672.671.778 1.723.255 2.516-5.364 8.125-9.065 17.041-11 26.501-.19.931-1.009 1.599-1.959 1.599h-15.394v27.431h15.393c.95 0 1.769.668 1.959 1.599 1.935 9.46 5.636 18.376 11 26.501.523.793.417 1.844-.255 2.516l-10.9 10.901 19.396 19.396 10.9-10.9c.671-.672 1.723-.778 2.516-.255 8.126 5.364 17.043 9.065 26.502 11 .931.19 1.599 1.009 1.599 1.959v15.395zm13.715-36.52c-30.496 0-55.306-24.811-55.306-55.307s24.809-55.307 55.306-55.307 55.307 24.811 55.307 55.307-24.811 55.307-55.307 55.307zm0-106.614c-28.291 0-51.306 23.016-51.306 51.307s23.015 51.307 51.306 51.307 51.307-23.016 51.307-51.307-23.016-51.307-51.307-51.307z" fill="#690589"/></g><g><path d="m128 21.69c-5.429 0-9.845-4.417-9.845-9.845s4.416-9.845 9.845-9.845 9.845 4.417 9.845 9.845-4.416 9.845-9.845 9.845zm0-15.69c-3.223 0-5.845 2.622-5.845 5.845s2.622 5.845 5.845 5.845 5.845-2.622 5.845-5.845-2.622-5.845-5.845-5.845z" fill="#690589"/></g><g><path d="m128 254c-5.429 0-9.845-4.417-9.845-9.845s4.417-9.845 9.845-9.845 9.845 4.417 9.845 9.845-4.416 9.845-9.845 9.845zm0-15.69c-3.223 0-5.845 2.622-5.845 5.845s2.622 5.845 5.845 5.845 5.845-2.622 5.845-5.845-2.622-5.845-5.845-5.845z" fill="#690589"/></g><g><path d="m11.845 137.845c-5.428 0-9.845-4.416-9.845-9.845s4.417-9.845 9.845-9.845 9.845 4.417 9.845 9.845-4.416 9.845-9.845 9.845zm0-15.69c-3.223 0-5.845 2.622-5.845 5.845s2.622 5.845 5.845 5.845 5.845-2.622 5.845-5.845-2.622-5.845-5.845-5.845z" fill="#690589"/></g><g><path d="m244.155 137.845c-5.429 0-9.845-4.417-9.845-9.845s4.417-9.845 9.845-9.845 9.845 4.416 9.845 9.845-4.417 9.845-9.845 9.845zm0-15.69c-3.223 0-5.845 2.622-5.845 5.845s2.622 5.845 5.845 5.845 5.845-2.622 5.845-5.845-2.622-5.845-5.845-5.845z" fill="#690589"/></g><g><path d="m45.866 55.707c-2.521 0-5.042-.959-6.961-2.879-1.86-1.859-2.884-4.332-2.884-6.961 0-2.63 1.024-5.102 2.884-6.962 1.859-1.859 4.332-2.883 6.961-2.883s5.102 1.024 6.961 2.884c3.838 3.838 3.838 10.084 0 13.923-1.919 1.918-4.44 2.878-6.961 2.878zm0-15.686c-1.562 0-3.029.608-4.133 1.712s-1.712 2.572-1.712 4.133.608 3.029 1.712 4.133c2.279 2.278 5.987 2.279 8.267 0 2.279-2.279 2.279-5.987 0-8.266-1.105-1.104-2.573-1.712-4.134-1.712z" fill="#690589"/></g><g><path d="m210.134 219.979c-2.629 0-5.102-1.024-6.961-2.884-3.838-3.838-3.838-10.084 0-13.923 3.84-3.838 10.085-3.839 13.923 0 1.86 1.859 2.884 4.332 2.884 6.961 0 2.63-1.024 5.102-2.884 6.962s-4.332 2.884-6.962 2.884zm0-15.687c-1.497 0-2.994.57-4.133 1.709-2.279 2.279-2.279 5.987 0 8.266 1.104 1.104 2.572 1.712 4.133 1.712 1.562 0 3.029-.608 4.133-1.712s1.712-2.572 1.712-4.133-.608-3.029-1.712-4.133c-1.14-1.14-2.636-1.709-4.133-1.709z" fill="#690589"/></g><g><path d="m45.866 219.979c-2.63 0-5.102-1.024-6.962-2.884-1.859-1.859-2.883-4.332-2.883-6.961s1.024-5.102 2.884-6.961c3.838-3.838 10.084-3.838 13.923 0 3.838 3.839 3.838 10.085 0 13.923-1.86 1.859-4.332 2.883-6.962 2.883zm0-15.687c-1.497 0-2.994.569-4.133 1.709-1.104 1.104-1.712 2.572-1.712 4.133 0 1.562.608 3.029 1.712 4.133s2.572 1.712 4.133 1.712 3.029-.608 4.133-1.712c2.279-2.279 2.279-5.987 0-8.267-1.139-1.139-2.636-1.708-4.133-1.708z" fill="#690589"/></g><g><path d="m210.134 55.707c-2.521 0-5.042-.959-6.961-2.878-3.838-3.839-3.838-10.085 0-13.923 1.859-1.86 4.332-2.884 6.961-2.884 2.63 0 5.102 1.024 6.962 2.884 1.859 1.859 2.883 4.332 2.883 6.961s-1.024 5.102-2.884 6.961c-1.919 1.919-4.44 2.879-6.961 2.879zm0-15.686c-1.561 0-3.029.608-4.133 1.712-2.279 2.279-2.279 5.987 0 8.267 2.279 2.279 5.987 2.279 8.266 0 1.104-1.104 1.712-2.572 1.712-4.133 0-1.562-.608-3.029-1.712-4.133-1.104-1.105-2.572-1.713-4.133-1.713z" fill="#690589"/></g><g><path d="m162.149 172.149h-68.298c-5.523 0-10-4.477-10-10v-68.298c0-5.523 4.477-10 10-10h68.299c5.523 0 10 4.477 10 10v68.299c-.001 5.522-4.478 9.999-10.001 9.999z" fill="#526faa"/></g><g><path d="m162.149 83.851h-7c5.523 0 10 4.477 10 10v68.299c0 5.523-4.477 10-10 10h7c5.523 0 10-4.477 10-10v-68.299c0-5.523-4.477-10-10-10z" fill="#34518c"/></g><g><path d="m93.851 172.149h7c-5.523 0-10-4.477-10-10v-68.298c0-5.523 4.477-10 10-10h-7c-5.523 0-10 4.477-10 10v68.299c0 5.522 4.477 9.999 10 9.999z" fill="#708dc8"/></g><g><path d="m152.487 158.33h-48.973c-3.227 0-5.843-2.616-5.843-5.843v-48.973c0-3.227 2.616-5.843 5.843-5.843h48.973c3.227 0 5.843 2.616 5.843 5.843v48.973c0 3.227-2.616 5.843-5.843 5.843z" fill="#f4efed"/></g><g><path d="m162.149 174.149h-68.298c-6.617 0-12-5.383-12-12v-68.298c0-6.617 5.383-12 12-12h68.299c6.617 0 12 5.383 12 12v68.299c-.001 6.616-5.384 11.999-12.001 11.999zm-68.298-88.298c-4.411 0-8 3.589-8 8v68.299c0 4.411 3.589 8 8 8h68.299c4.411 0 8-3.589 8-8v-68.299c0-4.411-3.589-8-8-8z" fill="#690589"/></g><g><path d="m152.487 160.33h-48.974c-4.325 0-7.843-3.519-7.843-7.843v-48.974c0-4.325 3.519-7.843 7.843-7.843h48.974c4.325 0 7.843 3.519 7.843 7.843v48.974c0 4.325-3.518 7.843-7.843 7.843zm-48.974-60.66c-2.119 0-3.843 1.724-3.843 3.843v48.974c0 2.119 1.724 3.843 3.843 3.843h48.974c2.119 0 3.843-1.724 3.843-3.843v-48.974c0-2.119-1.724-3.843-3.843-3.843z" fill="#690589"/></g><g><path d="m125.816 136.306h-10.91l-2.201 5.837c-.404.989-1.347 1.572-2.334 1.572-.314 0-.585-.046-.854-.135-1.301-.493-1.93-1.93-1.481-3.232l9.922-26.448c.404-.987 1.391-1.616 2.38-1.57 1.033-.046 1.974.583 2.378 1.57l9.924 26.448c.448 1.302-.179 2.738-1.482 3.232-.225.09-.537.135-.852.135-.989 0-1.932-.583-2.29-1.572zm-1.84-4.939-3.636-9.654-3.638 9.654z" fill="#690589"/></g><g><path d="m139.122 114.754c0-1.391 1.078-2.47 2.47-2.47 1.347 0 2.515 1.078 2.515 2.47v26.491c0 1.391-1.168 2.47-2.515 2.47-1.391 0-2.47-1.079-2.47-2.47z" fill="#690589"/></g></g></svg>