<?xml version="1.0" encoding="iso-8859-1"?>
<!-- Generator: Adobe Illustrator 19.0.0, SVG Export Plug-In . SVG Version: 6.00 Build 0)  -->
<svg version="1.1" id="Capa_1" xmlns="http://www.w3.org/2000/svg" xmlns:xlink="http://www.w3.org/1999/xlink" x="0px" y="0px"
	 viewBox="0 0 456.016 456.016" style="enable-background:new 0 0 456.016 456.016;" xml:space="preserve">
<g>
	<path style="fill:#D34178;" d="M392.664,305.261c-2.844,54.044-69.689,73.956-102.4,32.711
		c-31.289,35.556-85.333,35.556-116.622-1.422c-35.556,8.533-73.956-17.067-71.111-62.578
		c-56.889-24.178-62.578-103.822-9.956-135.111C61.286,81.972,113.908,13.705,177.908,27.927
		c28.444-34.133,79.644-36.978,110.933-8.533c48.356-28.444,108.089,2.844,115.2,56.889c46.933,7.111,64,65.422,31.289,98.133
		C476.575,219.927,452.397,295.305,392.664,305.261z"/>
	<circle style="fill:#D34178;" cx="101.108" cy="377.794" r="39.822"/>
</g>
<path style="fill:#BC3267;" d="M140.93,377.794c0,22.756-18.489,39.822-39.822,39.822c-14.222,0-27.022-7.111-34.133-18.489
	c5.689,4.267,12.8,5.689,21.333,5.689c22.756,0,39.822-18.489,39.822-39.822c0-7.111-2.844-15.644-5.689-21.333
	C133.819,352.194,140.93,364.994,140.93,377.794z"/>
<g>
	
		<ellipse transform="matrix(-0.3253 -0.9456 0.9456 -0.3253 -216.5489 555.7004)" style="fill:#E84E89;" cx="89.973" cy="355.105" rx="5.689" ry="11.378"/>
	<path style="fill:#E84E89;" d="M203.508,100.461c-22.756,7.111-44.089,4.267-48.356-7.111
		c-4.267-11.378,9.956-27.022,32.711-35.556c22.756-7.111,44.089-4.267,48.356,7.111C240.486,76.283,226.264,91.927,203.508,100.461
		z"/>
</g>
<circle style="fill:#D34178;" cx="29.997" cy="426.15" r="29.867"/>
<path style="fill:#BC3267;" d="M59.864,426.15c0,17.067-12.8,29.867-29.867,29.867c-11.378,0-19.911-5.689-25.6-14.222
	c4.267,2.844,9.956,4.267,15.644,4.267c17.067,0,29.867-14.222,29.867-29.867c0-5.689-1.422-11.378-4.267-15.644
	C54.175,406.238,59.864,414.772,59.864,426.15z"/>
<ellipse transform="matrix(-0.3253 -0.9456 0.9456 -0.3253 -356.5589 563.3566)" style="fill:#E84E89;" cx="22.699" cy="408.881" rx="4.267" ry="7.111"/>
<path style="fill:#BC3267;" d="M392.664,305.261c-2.844,54.044-69.689,73.956-103.822,32.711
	c-31.289,35.556-85.333,35.556-116.622-1.422c-27.022,7.111-58.311-8.533-68.267-36.978
	c92.444,18.489,284.444,27.022,328.533-206.222c21.333,21.333,24.178,58.311,0,82.489
	C476.575,219.927,452.397,295.305,392.664,305.261z"/>
<g>
</g>
<g>
</g>
<g>
</g>
<g>
</g>
<g>
</g>
<g>
</g>
<g>
</g>
<g>
</g>
<g>
</g>
<g>
</g>
<g>
</g>
<g>
</g>
<g>
</g>
<g>
</g>
<g>
</g>
</svg>
